<svg width="22" height="22" viewBox="0 0 22 22" fill="none" xmlns="http://www.w3.org/2000/svg">
<path opacity="0.1" d="M7.94718 10.7259C8.66032 12.1838 9.84213 13.3603 11.3033 14.0668C11.4102 14.1174 11.5285 14.1394 11.6465 14.1305C11.7644 14.1215 11.878 14.082 11.9761 14.0159L14.1276 12.5812C14.2228 12.5178 14.3322 12.479 14.4461 12.4686C14.56 12.4581 14.6747 12.4762 14.7798 12.5213L18.8049 14.2463C18.9416 14.3044 19.0558 14.4053 19.1302 14.5339C19.2045 14.6625 19.2351 14.8118 19.2173 14.9593C19.09 15.9548 18.6043 16.8698 17.851 17.533C17.0978 18.1961 16.1286 18.562 15.125 18.5621C12.0253 18.5621 9.05252 17.3307 6.86069 15.1389C4.66886 12.947 3.4375 9.97428 3.4375 6.87456C3.43755 5.87096 3.80342 4.90179 4.46659 4.14852C5.12975 3.39525 6.04475 2.90953 7.04026 2.78231C7.18774 2.76446 7.33703 2.79503 7.46562 2.8694C7.59422 2.94377 7.69517 3.05792 7.75325 3.19466L9.47978 7.22322C9.52444 7.32742 9.54264 7.44105 9.53275 7.55399C9.52287 7.66693 9.4852 7.77567 9.42312 7.87053L7.99343 10.055C7.92836 10.1533 7.88989 10.2668 7.88179 10.3844C7.87368 10.5019 7.89621 10.6196 7.94718 10.7259V10.7259Z" fill="#0B141F"/>
<path d="M7.94718 10.7259C8.66032 12.1838 9.84213 13.3603 11.3033 14.0668C11.4102 14.1174 11.5285 14.1394 11.6465 14.1305C11.7644 14.1215 11.878 14.082 11.9761 14.0159L14.1276 12.5812C14.2228 12.5178 14.3322 12.479 14.4461 12.4686C14.56 12.4581 14.6747 12.4762 14.7798 12.5213L18.8049 14.2463C18.9416 14.3044 19.0558 14.4053 19.1302 14.5339C19.2045 14.6625 19.2351 14.8118 19.2173 14.9593C19.09 15.9548 18.6043 16.8698 17.851 17.533C17.0978 18.1961 16.1286 18.562 15.125 18.5621C12.0253 18.5621 9.05252 17.3307 6.86069 15.1389C4.66886 12.947 3.4375 9.97428 3.4375 6.87456C3.43755 5.87096 3.80342 4.90179 4.46659 4.14852C5.12975 3.39525 6.04475 2.90953 7.04026 2.78231C7.18774 2.76446 7.33703 2.79503 7.46562 2.8694C7.59422 2.94377 7.69517 3.05792 7.75325 3.19466L9.47978 7.22322C9.52444 7.32742 9.54264 7.44105 9.53275 7.55399C9.52287 7.66693 9.4852 7.77567 9.42312 7.87053L7.99343 10.055C7.92836 10.1533 7.88989 10.2668 7.88179 10.3844C7.87368 10.5019 7.89621 10.6196 7.94718 10.7259V10.7259Z" stroke="#0B141F" stroke-width="1.2" stroke-linecap="round" stroke-linejoin="round"/>
</svg>
