<svg width="22" height="22" viewBox="0 0 22 22" fill="none" xmlns="http://www.w3.org/2000/svg">
<path opacity="0.1" d="M11 2.0625C9.17664 2.0625 7.42796 2.78683 6.13865 4.07615C4.84933 5.36546 4.125 7.11414 4.125 8.9375C4.125 15.125 11 19.9375 11 19.9375C11 19.9375 17.875 15.125 17.875 8.9375C17.875 7.11414 17.1507 5.36546 15.8614 4.07615C14.572 2.78683 12.8234 2.0625 11 2.0625ZM11 11.6875C10.4561 11.6875 9.92442 11.5262 9.47218 11.224C9.01995 10.9219 8.66747 10.4924 8.45933 9.98988C8.25119 9.48738 8.19673 8.93445 8.30284 8.401C8.40895 7.86755 8.67086 7.37755 9.05546 6.99296C9.44005 6.60836 9.93005 6.34645 10.4635 6.24034C10.9969 6.13423 11.5499 6.18869 12.0524 6.39683C12.5549 6.60497 12.9844 6.95745 13.2865 7.40968C13.5887 7.86192 13.75 8.3936 13.75 8.9375C13.75 9.66684 13.4603 10.3663 12.9445 10.882C12.4288 11.3978 11.7293 11.6875 11 11.6875V11.6875Z" fill="#0B141F"/>
<path d="M11 11.6875C12.5188 11.6875 13.75 10.4563 13.75 8.9375C13.75 7.41872 12.5188 6.1875 11 6.1875C9.48122 6.1875 8.25 7.41872 8.25 8.9375C8.25 10.4563 9.48122 11.6875 11 11.6875Z" stroke="#0B141F" stroke-width="1.2" stroke-linecap="round" stroke-linejoin="round"/>
<path d="M17.875 8.9375C17.875 15.125 11 19.9375 11 19.9375C11 19.9375 4.125 15.125 4.125 8.9375C4.125 7.11414 4.84933 5.36545 6.13864 4.07614C7.42795 2.78683 9.17664 2.0625 11 2.0625C12.8234 2.0625 14.572 2.78683 15.8614 4.07614C17.1507 5.36545 17.875 7.11414 17.875 8.9375V8.9375Z" stroke="#0B141F" stroke-width="1.2" stroke-linecap="round" stroke-linejoin="round"/>
</svg>
