<svg width="22" height="22" viewBox="0 0 22 22" fill="none" xmlns="http://www.w3.org/2000/svg">
<path opacity="0.1" d="M17.3137 4.33691C18.2257 4.33691 18.6617 5.4578 17.9894 6.07407L12.3513 11.2423C11.5867 11.9432 10.413 11.9432 9.6484 11.2423L4.01031 6.07407C3.33802 5.4578 3.77403 4.33691 4.68604 4.33691H17.3137Z" fill="#0B141F"/>
<path d="M17.8845 4.33691H4.11523C3.01066 4.33691 2.11523 5.23234 2.11523 6.33691V15.6638C2.11523 16.7684 3.01067 17.6638 4.11523 17.6638H17.8845C18.989 17.6638 19.8845 16.7684 19.8845 15.6638V6.33691C19.8845 5.23234 18.989 4.33691 17.8845 4.33691Z" stroke="#0B141F" stroke-width="1.2" stroke-linecap="round" stroke-linejoin="round"/>
<path d="M19.2926 5.07715L12.3612 11.5135C11.5939 12.226 10.4068 12.226 9.63942 11.5135L2.70801 5.07715" stroke="#0B141F" stroke-width="1.2" stroke-linecap="round" stroke-linejoin="round"/>
</svg>
