<svg xmlns="http://www.w3.org/2000/svg" xmlns:xlink="http://www.w3.org/1999/xlink" width="500" zoomAndPan="magnify" viewBox="0 0 375 374.999991" height="500" preserveAspectRatio="xMidYMid meet" version="1.0"><defs><g/><clipPath id="784a98031d"><path d="M 15.847656 126.527344 L 366.753906 126.527344 L 366.753906 267.332031 L 15.847656 267.332031 Z M 15.847656 126.527344 " clip-rule="nonzero"/></clipPath><clipPath id="462704200b"><path d="M 30.847656 126.527344 L 351.4375 126.527344 C 359.71875 126.527344 366.4375 133.246094 366.4375 141.527344 L 366.4375 252.332031 C 366.4375 260.613281 359.71875 267.332031 351.4375 267.332031 L 30.847656 267.332031 C 22.566406 267.332031 15.847656 260.613281 15.847656 252.332031 L 15.847656 141.527344 C 15.847656 133.246094 22.566406 126.527344 30.847656 126.527344 Z M 30.847656 126.527344 " clip-rule="nonzero"/></clipPath><clipPath id="fe11e14f6c"><path d="M 9.460938 119.054688 L 357.734375 119.054688 L 357.734375 258.363281 L 9.460938 258.363281 Z M 9.460938 119.054688 " clip-rule="nonzero"/></clipPath><clipPath id="509a4ee0a6"><path d="M 24.460938 119.054688 L 342.457031 119.054688 C 350.742188 119.054688 357.457031 125.769531 357.457031 134.054688 L 357.457031 243.363281 C 357.457031 251.648438 350.742188 258.363281 342.457031 258.363281 L 24.460938 258.363281 C 16.175781 258.363281 9.460938 251.648438 9.460938 243.363281 L 9.460938 134.054688 C 9.460938 125.769531 16.175781 119.054688 24.460938 119.054688 Z M 24.460938 119.054688 " clip-rule="nonzero"/></clipPath></defs><g clip-path="url(#784a98031d)"><g clip-path="url(#462704200b)"><path fill="#b8cd9e" d="M 15.847656 126.527344 L 366.203125 126.527344 L 366.203125 267.332031 L 15.847656 267.332031 Z M 15.847656 126.527344 " fill-opacity="1" fill-rule="nonzero"/></g></g><g clip-path="url(#fe11e14f6c)"><g clip-path="url(#509a4ee0a6)"><path fill="#000000" d="M 9.460938 119.054688 L 357.191406 119.054688 L 357.191406 258.363281 L 9.460938 258.363281 Z M 9.460938 119.054688 " fill-opacity="1" fill-rule="nonzero"/></g></g><g fill="#ffffff" fill-opacity="1"><g transform="translate(20.276554, 182.091334)"><g><path d="M 47.691406 0.0742188 L 55.855469 0.0742188 L 33.253906 -26.378906 L 55.855469 -52.90625 L 47.765625 -52.90625 L 26.984375 -28.570312 L 25.167969 -26.378906 L 12.320312 -11.414062 L 12.320312 -52.90625 L 6.199219 -52.90625 L 6.199219 0.0742188 L 10.65625 0.0742188 L 29.175781 -21.691406 Z M 47.691406 0.0742188 "/></g></g></g><g fill="#ffffff" fill-opacity="1"><g transform="translate(83.537787, 182.091334)"><g><path d="M 12.242188 -14.285156 L 6.199219 0.0742188 L 12.847656 0.0742188 L 17.382812 -10.582031 L 44.140625 -10.582031 L 48.675781 0.0742188 L 55.402344 0.0742188 L 49.277344 -14.285156 L 48.21875 -16.777344 L 32.800781 -52.90625 L 28.722656 -52.90625 L 13.300781 -16.777344 Z M 30.761719 -41.949219 L 41.492188 -16.777344 L 20.027344 -16.777344 Z M 30.761719 -41.949219 "/></g></g></g><g fill="#ffffff" fill-opacity="1"><g transform="translate(146.421107, 182.091334)"><g><path d="M 12.320312 0.0742188 L 12.320312 -52.90625 L 6.199219 -52.90625 L 6.199219 0.0742188 Z M 12.320312 0.0742188 "/></g></g></g><g fill="#ffffff" fill-opacity="1"><g transform="translate(166.223308, 182.091334)"><g><path d="M 52.226562 -38.09375 C 52.226562 -46.253906 45.574219 -52.90625 37.488281 -52.90625 L 6.199219 -52.90625 L 6.199219 0.0742188 L 12.320312 0.0742188 L 12.320312 -23.355469 L 27.738281 -23.355469 L 47.765625 0.0742188 L 55.855469 0.0742188 L 35.902344 -23.355469 L 37.488281 -23.355469 C 45.574219 -23.355469 52.226562 -29.929688 52.226562 -38.09375 Z M 12.320312 -29.476562 L 12.320312 -46.710938 L 37.488281 -46.710938 C 42.175781 -46.710938 46.027344 -42.855469 46.027344 -38.09375 C 46.027344 -33.332031 42.175781 -29.476562 37.488281 -29.476562 Z M 12.320312 -29.476562 "/></g></g></g><g fill="#ffffff" fill-opacity="1"><g transform="translate(229.484541, 182.091334)"><g><path d="M 59.105469 -26.378906 C 59.105469 -40.964844 47.238281 -52.90625 32.652344 -52.90625 C 18.0625 -52.90625 6.199219 -40.964844 6.199219 -26.378906 C 6.199219 -11.789062 18.0625 0.0742188 32.652344 0.0742188 C 47.238281 0.0742188 59.105469 -11.789062 59.105469 -26.378906 Z M 12.320312 -26.378906 C 12.320312 -37.5625 21.464844 -46.710938 32.652344 -46.710938 C 43.835938 -46.710938 52.90625 -37.640625 52.90625 -26.378906 C 52.90625 -15.191406 43.835938 -6.121094 32.652344 -6.121094 C 21.464844 -6.121094 12.320312 -15.191406 12.320312 -26.378906 Z M 12.320312 -26.378906 "/></g></g></g><g fill="#ffffff" fill-opacity="1"><g transform="translate(295.920154, 182.091334)"><g><path d="M 37.488281 -6.121094 L 20.9375 -6.121094 C 16.175781 -6.121094 12.320312 -9.976562 12.320312 -14.738281 L 6.199219 -14.738281 C 6.199219 -6.574219 12.773438 0.0742188 20.9375 0.0742188 L 37.488281 0.0742188 C 45.574219 0.0742188 52.226562 -6.574219 52.226562 -14.738281 C 52.226562 -22.902344 45.574219 -29.476562 37.488281 -29.476562 L 20.9375 -29.476562 C 16.175781 -29.476562 12.320312 -33.332031 12.320312 -38.09375 C 12.320312 -42.855469 16.175781 -46.710938 20.9375 -46.710938 L 37.488281 -46.710938 C 42.175781 -46.710938 46.027344 -42.855469 46.027344 -38.09375 L 52.226562 -38.09375 C 52.226562 -46.253906 45.574219 -52.90625 37.488281 -52.90625 L 20.9375 -52.90625 C 12.773438 -52.90625 6.199219 -46.253906 6.199219 -38.09375 C 6.199219 -29.929688 12.773438 -23.355469 20.9375 -23.355469 L 37.488281 -23.355469 C 42.175781 -23.355469 46.027344 -19.5 46.027344 -14.738281 C 46.027344 -9.976562 42.175781 -6.121094 37.488281 -6.121094 Z M 37.488281 -6.121094 "/></g></g></g><g fill="#ffffff" fill-opacity="1"><g transform="translate(355.705555, 182.091334)"><g/></g></g><g fill="#ffffff" fill-opacity="1"><g transform="translate(28.627155, 246.260268)"><g><path d="M 25.773438 -52.90625 L 6.199219 -52.90625 L 6.199219 0.0742188 L 25.773438 0.0742188 C 40.359375 0.0742188 52.226562 -11.789062 52.226562 -26.378906 C 52.226562 -40.964844 40.359375 -52.90625 25.773438 -52.90625 Z M 25.773438 -6.121094 L 12.320312 -6.121094 L 12.320312 -46.710938 L 25.773438 -46.710938 C 36.960938 -46.710938 46.027344 -37.5625 46.027344 -26.378906 C 46.027344 -15.191406 36.960938 -6.121094 25.773438 -6.121094 Z M 25.773438 -6.121094 "/></g></g></g><g fill="#ffffff" fill-opacity="1"><g transform="translate(88.411658, 246.260268)"><g><path d="M 52.226562 -46.710938 L 52.226562 -52.90625 L 6.199219 -52.90625 L 6.199219 0.0742188 L 52.226562 0.0742188 L 52.226562 -6.121094 L 12.320312 -6.121094 L 12.320312 -23.355469 L 38.09375 -23.355469 L 38.09375 -29.476562 L 12.320312 -29.476562 L 12.320312 -46.710938 Z M 52.226562 -46.710938 "/></g></g></g><g fill="#ffffff" fill-opacity="1"><g transform="translate(148.196162, 246.260268)"><g><path d="M 37.488281 -6.121094 L 20.9375 -6.121094 C 16.175781 -6.121094 12.320312 -9.976562 12.320312 -14.738281 L 6.199219 -14.738281 C 6.199219 -6.574219 12.773438 0.0742188 20.9375 0.0742188 L 37.488281 0.0742188 C 45.574219 0.0742188 52.226562 -6.574219 52.226562 -14.738281 C 52.226562 -22.902344 45.574219 -29.476562 37.488281 -29.476562 L 20.9375 -29.476562 C 16.175781 -29.476562 12.320312 -33.332031 12.320312 -38.09375 C 12.320312 -42.855469 16.175781 -46.710938 20.9375 -46.710938 L 37.488281 -46.710938 C 42.175781 -46.710938 46.027344 -42.855469 46.027344 -38.09375 L 52.226562 -38.09375 C 52.226562 -46.253906 45.574219 -52.90625 37.488281 -52.90625 L 20.9375 -52.90625 C 12.773438 -52.90625 6.199219 -46.253906 6.199219 -38.09375 C 6.199219 -29.929688 12.773438 -23.355469 20.9375 -23.355469 L 37.488281 -23.355469 C 42.175781 -23.355469 46.027344 -19.5 46.027344 -14.738281 C 46.027344 -9.976562 42.175781 -6.121094 37.488281 -6.121094 Z M 37.488281 -6.121094 "/></g></g></g><g fill="#ffffff" fill-opacity="1"><g transform="translate(207.980665, 246.260268)"><g><path d="M 12.320312 0.0742188 L 12.320312 -52.90625 L 6.199219 -52.90625 L 6.199219 0.0742188 Z M 12.320312 0.0742188 "/></g></g></g><g fill="#ffffff" fill-opacity="1"><g transform="translate(227.782866, 246.260268)"><g><path d="M 46.027344 -3.628906 L 46.027344 0.0742188 L 52.226562 0.0742188 L 52.226562 -29.476562 L 28.117188 -29.476562 L 28.117188 -23.355469 L 46.027344 -23.355469 L 46.027344 -11.1875 C 42.324219 -7.9375 37.640625 -6.121094 32.574219 -6.121094 C 27.210938 -6.121094 22.070312 -8.238281 18.289062 -12.09375 C 10.355469 -19.953125 10.355469 -32.878906 18.289062 -40.738281 C 22.070312 -44.59375 27.210938 -46.710938 32.574219 -46.710938 C 38.015625 -46.710938 43.15625 -44.59375 46.9375 -40.738281 L 51.320312 -45.121094 C 40.964844 -55.402344 24.1875 -55.402344 13.90625 -45.121094 C 3.550781 -34.765625 3.550781 -17.988281 13.90625 -7.710938 C 18.894531 -2.722656 25.546875 0.0742188 32.574219 0.0742188 C 37.414062 0.0742188 42.023438 -1.210938 46.027344 -3.628906 Z M 46.027344 -3.628906 "/></g></g></g><g fill="#ffffff" fill-opacity="1"><g transform="translate(287.567356, 246.260268)"><g><path d="M 46.027344 -11.414062 L 10.65625 -52.90625 L 6.199219 -52.90625 L 6.199219 0.0742188 L 12.320312 0.0742188 L 12.320312 -41.417969 L 47.691406 0.0742188 L 52.226562 0.0742188 L 52.226562 -52.90625 L 46.027344 -52.90625 Z M 46.027344 -11.414062 "/></g></g></g></svg>